<svg width="817" height="279" viewBox="0 0 817 279" fill="none" xmlns="http://www.w3.org/2000/svg">
<path d="M129.066 267.201C129.858 269.758 131.134 271.628 132.9 272.805C134.66 273.987 137.9 274.576 142.608 274.576V277.221H106.087V274.576C110.014 274.576 112.717 274.237 114.191 273.555C115.66 272.862 116.4 271.534 116.4 269.576C116.4 268.982 116.348 268.341 116.254 267.659C116.155 266.966 115.858 265.737 115.358 263.971C114.868 262.211 114.181 259.659 113.296 256.326C112.421 252.982 111.15 248.362 109.483 242.471C107.816 236.586 105.702 229.128 103.15 220.096C100.592 211.055 97.5507 199.951 94.0247 186.784C88.9101 188.951 84.3893 193.523 80.4622 200.492C76.5299 207.466 72.1132 217.138 67.2122 229.513C63.8789 237.753 60.733 244.966 57.7747 251.159C54.8268 257.341 51.8841 262.492 48.9414 266.617C45.9934 270.742 42.8007 273.794 39.358 275.763C35.9257 277.721 32.0507 278.701 27.733 278.701C23.0247 278.701 18.8476 277.867 15.2122 276.201C11.5872 274.523 8.63928 272.362 6.37886 269.721C4.12886 267.07 2.46219 264.029 1.37886 260.596C0.295527 257.154 -0.152391 253.659 0.0455267 250.117C0.0455267 248.951 0.19136 247.534 0.483027 245.867C0.785111 244.19 1.52469 241.044 2.69136 236.43C3.86844 231.82 5.58719 225.341 7.83719 216.992C10.0976 208.648 13.2955 197.159 17.4205 182.534C21.5455 167.898 26.6966 149.732 32.8789 128.034C39.0716 106.326 46.5872 79.862 55.4205 48.638C54.6393 47.263 53.3164 46.0911 51.4414 45.1172C49.5768 44.1328 46.5872 43.638 42.4622 43.638V40.9922H79.2955V43.638C75.3632 43.638 72.7122 44.2318 71.3372 45.4089C69.9622 46.5911 69.2747 48.2578 69.2747 50.4089C69.2747 51.0078 69.3216 51.5964 69.4205 52.1797C69.5143 52.763 70.0507 54.8255 71.0247 58.3672C72.0091 61.8984 73.6341 67.7839 75.8997 76.0339C78.1601 84.2839 81.5039 96.3151 85.9205 112.117C90.3372 127.924 96.0299 148.398 103.004 173.534C109.973 198.674 118.66 229.898 129.066 267.201ZM64.5664 228.326C69.0768 217.133 73.4934 207.612 77.8164 199.763C82.1341 191.904 87.2382 186.695 93.1289 184.138L56.8997 53.3464C55.5247 58.0703 53.5559 64.9505 51.0039 73.9922C48.4466 83.0234 45.5507 93.2786 42.3164 104.763C39.0768 116.253 35.6914 128.326 32.1497 140.992C28.6184 153.659 25.1809 165.883 21.8372 177.659C18.5039 189.44 15.4622 200.237 12.7122 210.055C9.96219 219.878 7.80073 227.633 6.23303 233.326C5.05073 237.648 4.6549 241.867 5.04553 245.992C5.44657 250.117 6.62886 253.805 8.58719 257.055C10.5559 260.294 13.4049 262.945 17.1289 265.013C20.8632 267.07 25.3841 268.096 30.6914 268.096C32.2591 268.096 34.2174 267.857 36.5664 267.367C38.9257 266.867 41.5299 265.398 44.3789 262.951C47.2226 260.492 50.3164 256.565 53.6497 251.159C56.9934 245.758 60.6341 238.148 64.5664 228.326Z" fill="white"/>
<path d="M254.837 43.0547V63.3672H252.191C252.191 57.0911 251.358 52.6276 249.691 49.9714C248.025 47.3203 245.514 45.7995 242.17 45.4089H205.066V266.326C205.066 269.466 205.993 271.878 207.858 273.555C209.717 275.221 213.202 276.055 218.316 276.055V278.701H179.15V276.055C182.285 276.055 184.785 275.716 186.65 275.034C188.509 274.341 189.827 273.357 190.608 272.076C191.4 270.799 191.889 269.378 192.087 267.805C192.295 266.237 192.4 264.565 192.4 262.784V45.4089H155.275C151.941 45.7995 149.441 47.3203 147.775 49.9714C146.108 52.6276 145.275 57.0911 145.275 63.3672H142.608V43.0547H254.837Z" fill="white"/>
<path d="M383.904 267.201C384.695 269.758 385.971 271.628 387.737 272.805C389.497 273.987 392.737 274.576 397.445 274.576V277.221H360.924V274.576C364.851 274.576 367.555 274.237 369.029 273.555C370.497 272.862 371.237 271.534 371.237 269.576C371.237 268.982 371.185 268.341 371.091 267.659C370.992 266.966 370.695 265.737 370.195 263.971C369.706 262.211 369.018 259.659 368.133 256.326C367.258 252.982 365.987 248.362 364.32 242.471C362.654 236.586 360.539 229.128 357.987 220.096C355.43 211.055 352.388 199.951 348.862 186.784C343.747 188.951 339.226 193.523 335.299 200.492C331.367 207.466 326.95 217.138 322.049 229.513C318.716 237.753 315.57 244.966 312.612 251.159C309.664 257.341 306.721 262.492 303.779 266.617C300.831 270.742 297.638 273.794 294.195 275.763C290.763 277.721 286.888 278.701 282.57 278.701C277.862 278.701 273.685 277.867 270.049 276.201C266.424 274.523 263.476 272.362 261.216 269.721C258.966 267.07 257.299 264.029 256.216 260.596C255.133 257.154 254.685 253.659 254.883 250.117C254.883 248.951 255.029 247.534 255.32 245.867C255.622 244.19 256.362 241.044 257.529 236.43C258.706 231.82 260.424 225.341 262.674 216.992C264.935 208.648 268.133 197.159 272.258 182.534C276.383 167.898 281.534 149.732 287.716 128.034C293.909 106.326 301.424 79.862 310.258 48.638C309.476 47.263 308.154 46.0911 306.279 45.1172C304.414 44.1328 301.424 43.638 297.299 43.638V40.9922H334.133V43.638C330.2 43.638 327.549 44.2318 326.174 45.4089C324.799 46.5911 324.112 48.2578 324.112 50.4089C324.112 51.0078 324.159 51.5964 324.258 52.1797C324.351 52.763 324.888 54.8255 325.862 58.3672C326.846 61.8984 328.471 67.7839 330.737 76.0339C332.997 84.2839 336.341 96.3151 340.758 112.117C345.174 127.924 350.867 148.398 357.841 173.534C364.81 198.674 373.497 229.898 383.904 267.201ZM319.404 228.326C323.914 217.133 328.331 207.612 332.654 199.763C336.971 191.904 342.075 186.695 347.966 184.138L311.737 53.3464C310.362 58.0703 308.393 64.9505 305.841 73.9922C303.284 83.0234 300.388 93.2786 297.154 104.763C293.914 116.253 290.529 128.326 286.987 140.992C283.456 153.659 280.018 165.883 276.674 177.659C273.341 189.44 270.299 200.237 267.549 210.055C264.799 219.878 262.638 227.633 261.07 233.326C259.888 237.648 259.492 241.867 259.883 245.992C260.284 250.117 261.466 253.805 263.424 257.055C265.393 260.294 268.242 262.945 271.966 265.013C275.7 267.07 280.221 268.096 285.529 268.096C287.096 268.096 289.055 267.857 291.404 267.367C293.763 266.867 296.367 265.398 299.216 262.951C302.06 260.492 305.154 256.565 308.487 251.159C311.831 245.758 315.471 238.148 319.404 228.326Z" fill="white"/>
<path d="M540.883 43.0547V45.4089C535.784 45.4089 532.393 46.1953 530.716 47.763C529.049 49.3359 527.924 51.2005 527.341 53.3672L475.508 270.742C476.477 272.315 477.893 273.591 479.758 274.576C481.633 275.565 484.633 276.055 488.758 276.055V278.701H451.924V276.055C457.034 276.055 460.076 275.174 461.049 273.409C462.034 271.633 462.039 269.076 461.07 265.742C460.664 263.982 458.701 255.44 455.174 240.117C453.602 233.633 451.591 225.284 449.133 215.076C446.674 204.867 443.674 192.253 440.133 177.221C436.602 162.195 432.487 144.523 427.779 124.201C423.07 103.883 417.57 80.2734 411.279 53.3672C410.497 51.0078 409.221 49.0911 407.445 47.6172C405.68 46.1484 402.346 45.4089 397.445 45.4089V43.0547H434.258V45.4089H433.966C428.852 45.4089 425.758 46.1953 424.674 47.763C423.602 49.3359 423.56 52.0859 424.549 56.013C424.549 56.4036 425.284 59.6953 426.758 65.888C428.227 72.0703 430.138 80.1693 432.487 90.1797C434.846 100.195 437.497 111.487 440.445 124.055C443.388 136.628 446.43 149.388 449.57 162.346C456.831 192.987 465.081 227.648 474.32 266.326C484.138 224.701 492.237 190.341 498.612 163.242C504.997 136.133 510.06 114.628 513.799 98.7214C518.117 80.263 521.451 66.1276 523.799 56.3047C524.591 53.1693 524.539 50.5703 523.654 48.513C522.779 46.4453 519.784 45.4089 514.674 45.4089V43.0547H540.883Z" fill="white"/>
<path d="M580.049 278.7H540.883V276.054C544.216 276.054 546.763 275.716 548.529 275.034C550.305 274.341 551.633 273.403 552.508 272.221C553.393 271.044 553.888 269.669 553.987 268.096C554.081 266.528 554.133 264.862 554.133 263.096V58.6585C554.133 56.8981 554.081 55.2315 553.987 53.6585C553.888 52.0908 553.393 50.7158 552.508 49.5335C551.633 48.3565 550.305 47.3773 548.529 46.596C546.763 45.8044 544.216 45.4085 540.883 45.4085V43.0544H580.049V45.4085C574.951 45.4085 571.466 46.294 569.591 48.0544C567.727 49.82 566.799 52.2783 566.799 55.4294V266.325C566.799 269.466 567.727 271.877 569.591 273.554C571.466 275.221 574.951 276.054 580.049 276.054V278.7ZM543.529 27.4502C543.138 27.0492 542.945 26.6533 542.945 26.2627C545.497 24.3044 548.096 22.0023 550.737 19.346C553.388 16.695 555.789 14.1377 557.945 11.6794C560.112 9.22104 562.029 7.01271 563.695 5.05438C565.372 3.09604 566.706 1.82 567.695 1.22104C569.07 0.236667 570.539 -0.153958 572.112 0.0543752C573.68 0.252291 574.951 1.03354 575.924 2.40854C576.909 3.59083 577.305 5.01271 577.112 6.67938C576.914 8.34604 576.133 9.67417 574.758 10.6585C573.768 11.2419 572.143 12.1273 569.883 13.3044C567.633 14.4867 565.034 15.8148 562.091 17.2835C559.143 18.7575 556.049 20.4242 552.799 22.2835C549.56 24.1481 546.664 26.0648 544.112 28.0335L543.529 27.4502Z" fill="white"/>
<path d="M653.756 50.4648C666.714 45.1731 679.766 42.2877 692.923 41.7981C706.089 41.2981 718.704 42.7721 730.777 46.2148C742.86 49.6471 754.1 54.8971 764.506 61.9648C774.923 69.0377 784.006 77.5273 791.756 87.444C799.516 97.3606 805.61 108.46 810.027 120.736C814.443 133.001 816.652 146.105 816.652 160.048C816.652 173.996 814.443 187.152 810.027 199.527C805.61 211.892 799.516 223.027 791.756 232.944C784.006 242.861 774.87 251.355 764.36 258.423C753.86 265.496 742.568 270.751 730.485 274.194C718.412 277.626 705.844 279.095 692.777 278.611C679.719 278.126 666.714 275.23 653.756 269.923C640.798 264.621 629.407 257.548 619.589 248.715C609.766 239.881 601.761 229.965 595.568 218.965C589.386 207.965 585.016 196.23 582.464 183.756C579.923 171.288 579.386 158.772 580.86 146.215C582.329 133.647 585.818 121.376 591.318 109.402C596.818 97.4179 604.574 86.4179 614.589 76.4023C620.282 70.694 626.365 65.6835 632.839 61.3606C639.324 57.0429 646.298 53.4127 653.756 50.4648ZM806.631 201.277C811.157 187.736 812.386 173.996 810.318 160.048C808.261 146.105 803.844 132.798 797.068 120.131C790.287 107.465 781.548 95.9804 770.839 85.6731C760.141 75.371 748.412 66.9752 735.652 60.4856C722.886 54.0012 709.485 49.9231 695.443 48.2565C681.402 46.5898 667.6 48.2148 654.048 53.1315C639.907 59.0221 627.386 67.4179 616.485 78.319C605.594 89.2096 597.204 101.725 591.318 115.861C586.402 129.418 584.777 143.215 586.443 157.256C588.12 171.298 592.199 184.704 598.673 197.465C605.157 210.23 613.6 221.965 624.006 232.673C634.423 243.371 645.907 252.105 658.464 258.881C671.032 265.647 684.339 270.064 698.381 272.131C712.423 274.189 726.219 272.96 739.777 268.444C755.094 262.559 768.594 253.819 780.277 242.236C791.954 230.652 800.74 217.001 806.631 201.277Z" fill="white"/>
</svg>
